<svg width="80" height="80" fill="none" xmlns="http://www.w3.org/2000/svg"><path d="M69.2 25.117H44.8C58.4 18.319 59.5 14.02 59 11.62c-1.1-3.899-5.6-6.898-9.8-5.298-5.5 2.099-7 10.296-8.5 16.194-1.9-5.998-3.7-13.595-8-17.494-1.2-1.1-3-2.2-5.7-2-4 .4-9.7 5.299-7.3 10.797 2.2 5.299 9.5 8.697 14.4 11.397H11.8c-1.6 0-2.8 1.3-2.8 2.799v11.196c0 1.6 1.3 2.8 2.8 2.8h.3V78h57V42.011h.1c1.6 0 2.8-1.3 2.8-2.799V28.016c0-1.6-1.3-2.9-2.8-2.9ZM50.8 8.822c2.1-.3 4.9 1.3 5.2 3.199.4 2.699-3.3 5.198-5 6.298-2.5 1.7-4.9 2.599-7.2 3.999.8-3.7 2.5-12.896 7-13.496Zm-22.6 9.797c-2.2-1.5-6.4-4.399-6.3-7.698.1-3.599 5.7-6.498 8.7-3.799 3.8 3.3 5.6 10.997 7 16.395-3.2-1.6-6.2-2.799-9.4-4.898ZM34.1 75H15V42.01h19.1v32.99Zm0-35.989H12V28.116h22.1v10.896Zm10 35.989H37V28.116h7.1V75Zm22 0h-19V42.01h19.1v32.99h-.1ZM69 39.012H47.1V28.116H69v10.896Z" fill="#81B3D2"/></svg>