<svg xmlns="http://www.w3.org/2000/svg">
  <symbol id="socials-icon-telegram" viewBox="0 0 22 18">
    <path d="M21.4392 1.62225L18.2705 16.566C18.0312 17.6205 17.408 17.883 16.5222 17.3865L11.6937 13.8285L9.36424 16.0695C9.10624 16.3275 8.89099 16.5428 8.39374 16.5428L8.74099 11.6258L17.6892 3.54C18.0785 3.1935 17.6045 3.00075 17.0847 3.348L6.02224 10.314L1.25974 8.823C0.22399 8.49975 0.20524 7.78725 1.47574 7.29L20.1035 0.113253C20.966 -0.209997 21.7205 0.305253 21.4392 1.623V1.62225Z"/>
  </symbol>
  <symbol id="socials-icon-vkontakte" viewBox="0 0 24 14">
    <path fill-rule="evenodd" clip-rule="evenodd" d="M23.45 0.948C23.616 0.402 23.45 0 22.655 0H20.03C19.362 0 19.054 0.347 18.887 0.73C18.887 0.73 17.552 3.926 15.661 6.002C15.049 6.604 14.771 6.795 14.437 6.795C14.27 6.795 14.019 6.604 14.019 6.057V0.948C14.019 0.292 13.835 0 13.279 0H9.151C8.734 0 8.483 0.304 8.483 0.593C8.483 1.214 9.429 1.358 9.526 3.106V6.904C9.526 7.737 9.373 7.888 9.039 7.888C8.149 7.888 5.984 4.677 4.699 1.003C4.45 0.288 4.198 0 3.527 0H0.9C0.15 0 0 0.347 0 0.73C0 1.412 0.89 4.8 4.145 9.281C6.315 12.341 9.37 14 12.153 14C13.822 14 14.028 13.632 14.028 12.997V10.684C14.028 9.947 14.186 9.8 14.715 9.8C15.105 9.8 15.772 9.992 17.33 11.467C19.11 13.216 19.403 14 20.405 14H23.03C23.78 14 24.156 13.632 23.94 12.904C23.702 12.18 22.852 11.129 21.725 9.882C21.113 9.172 20.195 8.407 19.916 8.024C19.527 7.533 19.638 7.314 19.916 6.877C19.916 6.877 23.116 2.451 23.449 0.948H23.45Z"/>
  </symbol>
  <symbol id="socials-icon-youtube" viewBox="0 0 20 14">
    <path d="M17.1813 0H2.81331C1.30618 0 0 1.3 0 2.8V11.1C0 12.7 1.30618 14 2.81331 14H17.1813C18.7889 14 19.9946 12.7 19.9946 11.2V2.8C20.095 1.3 18.7889 0 17.1813 0ZM7.03326 10.4V3.6L13.8656 7L7.03326 10.4Z"/>
  </symbol>
  <symbol id="logo-htmlacademy" viewBox="0 0 32 32">
    <path d="M16.1338 2H16.0446L4 3.19062V24.1965L16.0446 31L28 24.1965V3.19062L16.1338 2ZM26.3048 12.2903L16.0446 6.50733V6.42229H15.9554L15.8662 6.33724V6.42229L5.69517 12.2903V4.63636L15.9554 3.61584L26.3048 4.63636V12.2903ZM15.9554 7.78299L26.2156 13.4809L22.2007 15.6921L15.8662 12.1202V13.3109L21.1301 16.2874L20.3271 16.7126L15.8662 14.1613V15.3519L19.2565 17.3079L18.5428 17.7331L15.8662 16.2023V17.393L17.5613 18.3284L15.9554 19.2639L5.78439 13.566L15.9554 7.78299ZM5.69517 14.8416L15.8662 20.6246V21.4751L8.81784 17.478V18.6686L15.9554 22.7507V23.6862L8.81784 19.6891V20.8798L15.9554 24.9619L23.1822 20.7947V16.3724L26.2156 14.6716V23.176L15.9554 29.044L5.69517 23.261V14.8416Z"/>
  </symbol>
  <symbol id="icons-player" viewBox="0 0 48 54">
    <path d="M48 27L0 54L2.42273e-06 0L48 27Z" fill="white"/>
  </symbol>
  <svg id="icons-like" viewBox="0 0 32 32">
    <path d="M17.4 9.6L16.8 12.5L16.2 15H18.7H24.9V17C24.9 17 24.9 17 24.9 17.1L22 24H13V14L17.4 9.6ZM7 16V24V16ZM18.2 6L11.6 12.6C11.2 12.9 11 13.4 11 14V24C11 25.1 11.9 26 13 26H22C22.8 26 23.5 25.5 23.8 24.8L26.8 17.7C26.9 17.5 26.9 17.2 26.9 17V15H27C27 13.9 26.1 13 25 13H18.7L19.7 8.4V8.1C19.7 7.7 19.5 7.3 19.3 7L18.2 6ZM9 14H5V26H9V14Z"/>
  </svg>
</svg>
