<svg width="102" height="84" viewBox="0 0 102 84" fill="none" xmlns="http://www.w3.org/2000/svg">
<path d="M1.82959 0.696899L51.0043 58.8395L99.8816 1.09514L1.82959 0.696899Z" fill="#23A9E1"/>
<path d="M79.9539 17.2237C74.8977 17.2237 69.9405 17.3233 64.8843 17.3233C70.8328 10.4537 73.5097 11.1506 79.9539 17.2237Z" fill="white"/>
<path d="M39.1072 22.6C47.9309 22.6 56.7546 22.6 65.5782 22.6C63.5954 21.4052 58.9357 15.5312 56.358 17.7215C56.1597 17.9207 48.9223 8.86078 44.1635 13.2414C39.9995 17.0246 38.1158 12.7436 33.3569 15.7304C28.1024 19.3145 36.5295 21.4052 39.1072 22.6Z" fill="white"/>
<path d="M51.3017 0H0.838135V22.4008L51.0043 83.6298L51.3017 83.2315L101.567 23.0977V0H51.3017ZM13.4292 1.79207H18.8821V18.9163L13.4292 12.4449V1.79207ZM12.6361 11.5489L7.67897 5.67488V1.79207H12.6361V11.5489ZM31.7706 8.86077L26.1195 1.79207H31.7706V8.86077ZM25.2272 12.644L19.6752 1.79207H25.2272V12.644ZM19.5761 3.38501L25.0289 14.0379C22.2529 16.1286 20.3692 18.0202 19.5761 18.9163V3.38501ZM26.0203 2.88722L31.5723 9.75681C30.4818 10.3542 29.3912 11.0511 28.4989 11.6484C27.6066 12.2458 26.8135 12.8431 26.0203 13.4405V2.88722ZM32.5637 2.6881L37.3226 6.86959C35.6372 7.5665 34.0509 8.36298 32.5637 9.15945V2.6881ZM38.1157 6.57091L32.762 1.79207H38.7106V6.37179C38.4132 6.37179 38.314 6.47135 38.1157 6.57091ZM57.052 1.79207H62.0091L57.052 4.18149V1.79207ZM51.3017 1.79207H55.664L51.3017 3.88281V1.79207ZM50.4094 3.78325L46.2454 1.79207H50.4094V3.78325ZM44.9566 4.28105L39.9003 1.79207H44.9566V4.28105ZM39.4046 2.38942L44.0643 4.67928C42.478 5.07752 40.8917 5.47576 39.4046 5.97355V2.38942ZM45.7497 2.38942L49.1206 3.98237C47.9308 4.08193 46.8403 4.18149 45.6506 4.38061V2.38942H45.7497ZM56.0605 2.48898V4.38061C54.97 4.18149 53.8794 4.08193 52.6897 3.98237L56.0605 2.48898ZM62.5048 2.38942V6.07311C61.0177 5.57532 59.4314 5.07752 57.7459 4.67928L62.5048 2.38942ZM63.1988 1.79207H69.0482L63.6945 6.57091C63.4962 6.47135 63.3971 6.47135 63.1988 6.37179V1.79207ZM76.6822 1.79207H82.2342L76.6822 12.644V1.79207ZM70.1388 1.79207H75.7899L70.1388 8.76121V1.79207ZM69.3456 2.6881V9.15945C67.8585 8.36298 66.2722 7.5665 64.5868 6.86959L69.3456 2.6881ZM75.889 2.88722V13.3409C75.195 12.8431 74.4019 12.3453 73.6087 11.748C72.6173 11.0511 71.4276 10.3542 70.2379 9.65725L75.889 2.88722ZM82.2342 3.38501V18.518C81.1436 17.5224 79.359 15.8299 76.7813 13.9383L82.2342 3.38501ZM83.0273 19.3145V1.79207H88.4801V13.1418L83.0273 19.3145C83.0273 19.4141 83.1264 19.4141 83.0273 19.3145ZM89.2733 1.79207H94.2304V6.47135L89.2733 12.2458V1.79207ZM6.98497 1.79207V4.67928L4.50641 1.79207H6.98497ZM19.6752 19.9118L19.7744 20.0114C19.7744 20.0114 23.3435 16.1286 28.8955 12.4449C34.15 8.96033 42.0814 4.8784 51.0043 4.97796C59.8279 4.97796 67.9576 9.15945 73.113 12.644C78.665 16.3277 82.3333 20.111 82.4324 20.2105L78.5659 24.6907C71.725 25.5867 66.7679 30.7638 60.1254 29.6687C56.7545 29.0713 56.6554 27.1797 55.664 25.1885C54.97 23.6951 53.7803 23.8942 52.194 23.2969C50.806 22.6995 49.9137 21.6044 47.0386 22.2017C44.56 22.7991 44.2626 26.6819 41.09 26.4828C39.4046 26.3832 39.3054 23.9938 36.926 21.007C30.68 13.4405 24.8306 14.5356 20.8649 21.5048L50.9051 57.2466L19.6752 19.9118ZM94.9244 5.47576V1.79207H98.097L94.9244 5.47576Z" fill="#491213"/>
<path d="M46.9395 70.5875L51.0043 64.1161L54.97 70.5875L51.0043 77.0589L46.9395 70.5875Z" fill="#23A9E1"/>
<path d="M23.9383 32.1576C24.434 32.755 24.8306 33.4519 24.7315 34.2484C24.6323 34.8457 23.8392 35.8413 24.434 36.0404C25.128 35.1444 25.9212 34.1488 26.6152 33.2528C26.0203 33.0537 21.2615 27.4783 21.2615 26.7814C20.1709 27.3788 19.1795 27.9761 18.0889 28.4739C18.2872 29.1709 19.3778 28.4739 19.9726 28.4739C20.7658 28.5735 21.3606 29.0713 21.9555 29.6687C20.27 31.0625 16.1061 34.6466 15.6103 34.7462C15.4121 34.7462 14.5198 34.1488 14.5198 34.6466C14.5198 34.9453 15.4121 35.6422 15.5112 35.8413C16.2052 36.7374 16.9983 37.6334 17.6923 38.5294C18.2872 38.2307 17.5932 37.8325 17.8906 37.3347C18.188 36.9365 22.7486 33.0537 23.9383 32.1576Z" fill="white"/>
<path d="M18.6837 25.1885C19.0803 25.089 19.2786 25.5868 19.6751 25.089C18.882 24.0934 18.0889 23.1973 17.2957 22.2017C16.8992 21.8035 16.5026 21.3057 16.6017 22.2017C16.7009 22.7991 10.554 27.8766 10.1575 27.9762C9.66175 28.1753 9.36432 27.5779 9.06689 28.0757C9.76089 28.9718 10.554 29.7682 11.248 30.6643C11.4463 30.963 11.7437 31.2616 11.942 31.5603C12.2395 31.859 12.1403 30.8634 12.1403 30.963C12.0412 30.4652 12.636 30.0669 13.0326 29.7682C14.5197 28.474 18.2872 25.1885 18.6837 25.1885Z" fill="white"/>
<path d="M9.9592 24.2925C8.17463 24.7902 6.29092 24.0933 5.79521 22.3013C5.2995 20.5092 6.39006 18.518 7.8772 17.5224C9.2652 16.5268 11.4463 16.5268 12.2395 18.3189C12.5369 19.1154 12.4378 20.0114 12.1403 20.8079C11.942 21.3057 11.5455 21.8035 12.2395 22.1022C13.1318 21.007 13.9249 19.9118 14.8172 18.8167C13.7266 18.2193 13.33 17.1242 12.5369 16.2282C11.6446 15.133 10.4549 14.1374 9.06691 13.9383C6.19178 13.5401 3.51493 16.5268 3.31665 19.1154C3.21751 20.6088 3.71322 21.903 4.50636 23.0977C5.2995 24.0933 6.39006 24.6907 6.88578 25.8854C7.18321 25.985 9.56263 24.8898 10.1575 24.5911C10.0583 24.4916 10.0583 24.392 9.9592 24.2925C9.9592 24.2925 9.2652 24.4916 9.9592 24.2925Z" fill="white"/>
<path d="M48.9222 60.532C47.7324 59.7355 44.9565 55.8527 44.3616 55.2554C44.2625 55.1558 44.1633 54.9567 44.0642 54.8571C44.0642 54.8571 43.7667 55.0562 43.8659 55.0562C43.6676 55.1558 43.965 55.6536 43.7667 55.9523C42.9736 57.147 38.0165 60.9302 37.8182 61.1294C37.2233 61.5276 36.6285 60.9302 36.3311 61.428C37.0251 62.3241 39.107 64.9126 39.3053 65.0122C39.801 65.1117 39.4045 64.2157 39.5036 64.0166C39.6028 63.6183 42.0813 61.6271 42.9736 60.8307C43.271 60.532 43.6676 61.2289 43.8659 61.5276C44.1633 62.0254 44.3616 62.5232 44.1633 63.1205C44.0642 63.5188 43.4693 64.0166 43.8659 64.3152C44.4607 63.6183 46.2453 61.5276 46.4436 61.3285C46.741 61.0298 45.8487 61.3285 45.9479 61.2289C45.5513 61.428 45.2539 61.428 44.8573 61.2289C44.7582 61.1294 43.7667 60.1338 43.8659 60.0342C44.2625 59.636 44.8573 59.0386 45.353 58.939C46.2453 58.7399 46.9393 60.4324 47.0384 61.0298C47.1376 61.6271 47.1376 62.2245 46.9393 62.8219C46.8402 63.2201 46.4436 63.5188 46.9393 63.7179C47.6333 62.7223 48.3273 61.8263 49.0213 60.8307C49.2196 60.6316 49.0213 60.532 48.9222 60.532C49.1204 60.532 48.823 60.4324 48.9222 60.532Z" fill="white"/>
<path d="M38.8097 56.3505C40.9908 54.4589 41.2883 51.273 39.6028 49.0827C37.7191 46.5937 34.2491 45.9964 31.8697 47.9876C29.6886 49.8792 29.3912 52.9655 31.0766 55.2554C33.0594 57.9435 36.232 58.2422 38.8097 56.3505C38.7106 56.4501 39.9994 55.4545 38.8097 56.3505ZM38.314 51.6713C37.7191 53.1647 36.1328 54.7576 34.6457 55.355C32.8611 56.0519 31.5723 54.5585 32.2663 52.7664C32.9603 51.273 34.4474 49.6801 35.9346 49.0827C37.8183 48.3858 39.008 49.9788 38.314 51.6713C38.4131 51.4721 37.9174 52.5673 38.314 51.6713Z" fill="white"/>
<path d="M32.4646 41.8149C32.9603 41.9144 33.3569 42.3127 33.7535 41.8149C33.0595 40.9189 32.2663 40.0228 31.5723 39.2263C30.9775 39.525 31.5723 39.7241 31.374 40.2219C31.1758 40.6202 28.7963 41.0184 28.2015 41.118C28.3998 40.5206 29.0938 38.5294 29.3912 38.3303C29.8869 37.9321 30.2835 38.7286 30.68 38.2308C29.7878 37.1356 28.8955 36.0405 28.0032 34.9453C27.7058 34.5471 27.4083 33.9497 27.0118 34.2484C27.0118 34.2484 27.0118 35.7418 26.9126 35.9409C26.8135 36.14 26.0203 39.525 25.0289 40.4211C24.5332 40.8193 22.8478 42.3127 22.3521 42.5118C21.8564 42.7109 21.5589 41.9144 21.1624 42.5118C21.9555 43.5074 22.8478 44.503 23.6409 45.4986C23.7401 45.5981 24.2358 46.3946 24.4341 46.3946C24.9298 46.4942 24.5332 45.4986 24.5332 45.2995C24.7315 44.9012 27.0118 42.6114 28.0032 42.4122C29.1929 42.2131 30.9775 41.7153 32.4646 41.8149C32.068 41.8149 32.762 41.9144 32.4646 41.8149Z" fill="white"/>
<path d="M26.2186 22.7991C22.2529 22.6 23.8392 18.8167 26.6152 18.0202C29.1929 17.2238 34.6457 19.7127 36.3311 21.4053C33.5551 22.3013 29.986 22.1022 27.0117 22.3013C26.8135 19.1154 26.0203 20.2105 26.2186 22.7991Z" fill="#DC6243"/>
<path d="M35.6372 35.244C27.111 35.1444 32.8612 22.0026 35.7364 22.7991C39.1072 23.8942 38.7106 35.3435 35.6372 35.244Z" fill="#DC6243"/>
<path d="M41.6848 30.9629C40.8917 33.4519 39.3054 33.9497 39.5037 30.8633C39.702 27.3788 41.9823 28.1752 44.3617 26.881C46.3445 25.7858 47.4351 21.7039 50.9051 24.0933C52.4914 25.1885 54.2759 24.2924 54.7717 25.8854C54.7717 25.7858 50.3102 36.14 52.7888 36.14C47.8317 36.14 50.0128 30.266 51.8965 26.2836C50.1119 27.1796 47.1377 32.9541 49.5171 33.8501C48.2282 35.5426 44.3617 37.7329 42.3788 36.14C40.8917 35.0448 41.6848 32.9541 41.6848 30.9629Z" fill="#DC6243"/>
<path d="M45.7497 40.5206C42.2797 41.5162 37.7191 39.3259 43.2711 38.2307C46.7411 37.5338 50.4094 38.9276 45.7497 40.5206C45.6505 40.5206 45.8488 40.5206 45.7497 40.5206Z" fill="#DC6243"/>
<path d="M50.112 40.421C49.418 38.7285 50.7068 36.8369 52.7888 38.2307C54.5734 39.4255 51.8965 41.3171 50.112 40.421Z" fill="#DC6243"/>
<path d="M47.1377 45.0008C44.7583 44.3038 36.7277 44.4034 41.9823 42.2131C43.6677 41.6157 52.0948 42.4122 47.1377 45.0008Z" fill="#DC6243"/>
<path d="M57.5477 48.2862C56.1597 47.0915 54.6725 46.992 53.3837 48.2862C51.5991 45.0008 45.1548 46.0959 42.0814 45.5981C43.6677 49.6801 56.7545 50.4765 57.5477 48.2862Z" fill="#DC6243"/>
<path d="M55.6639 50.7752C52.4914 50.6756 49.0214 50.1778 46.1462 50.8748C48.0299 51.3726 52.4914 52.6668 48.3274 53.762C49.8145 55.9523 52.2931 55.7532 53.8794 53.8615C53.1854 53.5629 52.8879 53.1646 52.2931 52.7664C53.8794 52.4677 55.4656 51.5717 55.6639 50.7752Z" fill="#DC6243"/>
<path d="M59.233 46.8924C53.9785 43.8061 55.2673 41.5162 59.6296 39.3259C61.9099 38.2307 66.867 34.1488 68.949 35.4431C65.6773 39.3259 62.4056 43.1091 59.233 46.8924Z" fill="#DC6243"/>
<path d="M55.4656 39.6246C51.0042 35.0449 62.1082 35.4431 63.8927 33.8502C65.1816 34.2484 74.6001 25.5867 76.8804 26.1841C75.195 28.0757 71.725 34.2484 69.1473 34.2484C67.1644 34.2484 65.1816 33.9497 63.6945 35.3435C61.5133 37.4343 57.8451 38.4299 55.4656 39.6246Z" fill="#F49774"/>
<path d="M56.9528 34.0492C54.4742 35.3435 52.1939 30.1664 56.457 30.6642C59.233 30.9629 62.1082 30.4651 64.6859 30.8633C62.703 33.1532 60.0262 34.4475 56.9528 34.0492Z" fill="#F4B1A4"/>
<path d="M69.4449 52.2686C69.6432 52.866 69.7423 53.5629 69.6432 54.2598C69.544 55.1558 68.6517 57.147 67.462 56.5497C66.2723 55.9523 65.2809 54.8572 64.2895 53.9611C65.0826 53.0651 65.7766 52.2686 67.1646 52.6668C67.5612 52.7664 67.8586 52.6668 67.462 52.3682C67.0655 52.169 64.3886 50.377 64.1903 50.5761C63.8929 50.8748 64.686 51.4721 64.3886 52.0695C64.1903 52.4677 63.7938 52.866 63.4963 53.2642C62.8023 52.6668 61.6126 51.9699 62.4058 50.9743C62.9015 50.2774 63.6946 49.7796 64.4878 49.6801C65.0826 49.5805 66.2723 50.0783 66.4706 49.481C65.38 48.9832 64.2895 48.4854 63.1989 47.888C63.3972 48.6845 59.9272 52.3682 59.1341 53.3638C59.0349 53.4633 58.4401 53.9611 58.4401 54.1602C58.4401 54.5585 59.0349 54.2598 59.1341 54.2598C59.6298 54.0607 65.8758 59.3373 66.074 59.7356C66.1732 60.0342 65.8758 60.3329 66.074 60.4325C66.074 60.4325 66.2723 60.6316 66.3715 60.6316C66.768 60.1338 70.8329 54.658 71.7252 54.4589C70.932 53.2642 70.1389 52.0695 69.3457 50.7752C68.7509 51.0739 69.3457 51.7708 69.4449 52.2686Z" fill="white"/>
<path d="M63.298 58.9391C61.216 57.6448 57.746 60.2333 57.2503 60.4325C56.2589 60.9303 55.4657 59.9347 55.9615 58.9391C56.4572 58.1426 57.3494 57.7444 58.2417 57.6448C58.5392 57.6448 59.5306 57.8439 59.7289 57.6448C59.828 57.4457 59.9271 57.4457 59.7289 57.3461C58.8366 56.7488 58.0434 56.1514 57.1512 55.6536C56.9529 56.7488 55.7632 57.3461 55.0692 58.043C54.276 58.9391 53.582 59.9347 53.582 61.2289C53.582 62.3241 54.276 63.3197 55.2675 63.917C56.358 64.5144 57.5477 64.0166 58.5392 63.4192C59.134 63.021 59.828 62.5232 60.4229 62.2245C61.4143 61.7267 62.7031 62.125 62.4057 63.5188C62.1083 64.614 61.0177 65.6095 60.0263 65.8087C59.4314 66.0078 58.7374 65.9082 58.1426 65.7091C57.746 65.6095 57.1512 65.0122 56.9529 65.6095C58.1426 66.406 59.2332 67.3021 60.4229 68.0985C60.522 67.3021 60.9186 67.0034 61.5134 66.5056C62.2074 65.9082 62.9014 65.2113 63.4963 64.4148C64.686 62.7223 65.0826 60.3329 63.298 58.9391Z" fill="white"/>
<path d="M63.298 58.9391C64.2894 59.5364 62.7031 58.4413 63.298 58.9391V58.9391Z" fill="white"/>
<path d="M99.6834 19.5136C98.9894 20.2105 91.3554 17.2238 90.7605 16.726C90.4631 16.6264 90.4631 15.4317 90.0665 15.9295C89.67 16.4273 89.2734 16.9251 88.8768 17.4229C88.4803 17.9207 88.0837 18.4185 87.588 18.9163C87.2905 19.2149 87.0923 19.4141 87.588 19.6132C88.3811 19.2149 92.9417 26.881 92.5451 28.0757C91.8511 28.474 85.7043 22.9982 85.506 22.6995C85.4068 22.6 85.8034 21.7039 85.3077 21.8035C85.1094 21.8035 84.6137 22.6995 84.4154 22.8986C84.118 23.2969 83.8206 23.5956 83.5231 23.9938C83.8206 24.4916 84.0188 23.9938 84.5146 23.9938C84.9111 24.0933 86.2991 25.2881 86.6957 25.6863C86.0017 25.6863 84.0188 25.7859 83.8206 25.7859C82.9283 25.8854 83.424 25.0889 82.8291 24.8898C82.036 25.7859 81.342 26.6819 80.5489 27.6775C80.1523 28.1753 79.6566 28.7726 79.26 29.2704C79.1609 29.37 79.26 29.2704 79.26 29.37C79.5574 29.6687 79.3591 29.5691 79.8549 29.37C80.3506 29.1709 86.3983 34.2484 86.5965 34.5471C86.9931 34.9453 86.3983 35.5427 86.9931 35.7418C87.588 35.0449 88.1828 34.2484 88.7777 33.5515C88.8768 33.4519 88.8768 33.4519 88.7777 33.3524C88.3811 32.9541 88.282 33.5515 87.7863 33.5515C87.2905 33.4519 83.424 30.1665 81.9369 28.9717C83.7214 28.8722 89.1743 28.6731 90.0665 28.6731C90.364 28.6731 91.1571 29.5691 91.1571 29.8678C91.058 30.266 90.6614 30.4651 91.2562 30.6643C91.752 30.0669 92.2477 29.5691 92.7434 28.9717L92.9417 28.6731C93.0408 28.5735 93.0408 28.5735 93.14 28.3744L93.3382 28.1753C93.7348 27.6775 95.1228 26.1841 94.9245 26.0845C94.4288 25.6863 94.2305 26.5823 93.6357 25.985C93.3382 25.7859 92.446 24.1929 92.2477 23.7947C91.9502 23.3964 92.8425 22.8986 93.2391 22.6995C94.0322 22.2017 96.4117 21.5048 96.7091 22.9982C96.7091 23.2969 96.4117 23.496 96.6099 23.6951C96.6099 23.6951 96.8082 23.8942 96.9074 23.8942C97.1057 23.6951 99.2868 21.1066 100.179 19.9119C99.8816 19.7127 99.7825 19.6132 99.6834 19.5136ZM92.3468 21.7039C92.446 21.7039 92.5451 21.6044 92.3468 21.7039C92.0494 21.903 91.6528 22.2017 91.3554 22.5004C90.8597 21.6044 90.364 20.7083 89.7691 19.8123C90.9588 20.3101 92.1485 20.8079 93.2391 21.3057C93.0408 21.4052 92.7434 21.5048 92.3468 21.7039Z" fill="white"/>
<path d="M82.7299 32.8545C80.3505 30.8634 77.178 31.4607 75.1951 33.651C73.3114 35.9409 73.5097 39.3259 75.79 41.2175C78.0702 43.1091 81.4411 42.6113 83.3248 40.421C85.2085 38.1312 85.1094 34.7462 82.7299 32.8545ZM82.4325 39.4255C82.4325 39.4255 82.4325 39.525 82.4325 39.4255C81.1437 40.7197 79.0617 39.525 77.9711 38.7285C76.8805 37.9321 74.8977 36.14 76.0874 34.6466C77.178 33.3523 79.1608 34.4475 80.2514 35.1444C81.4411 35.9409 83.6222 37.7329 82.5317 39.3259C82.6308 39.2263 82.6308 39.2263 82.4325 39.4255Z" fill="white"/>
<path d="M82.73 32.8546C83.9197 33.8502 82.4325 32.6555 82.73 32.8546V32.8546Z" fill="white"/>
<path d="M82.4325 39.5255C82.4325 39.4255 82.4325 39.4255 82.4325 39.5255C82.5325 39.4255 82.5325 39.4255 82.5325 39.4255C82.4325 39.4255 82.4325 39.5255 82.4325 39.5255Z" fill="white"/>
<path d="M76.1865 41.9144C76.2857 42.014 76.484 42.2131 76.1865 41.9144C73.3114 39.7241 69.9406 40.3215 67.7594 43.0096C66.768 44.2043 65.7766 45.399 64.7852 46.5937C65.1817 47.0915 65.5783 46.4942 66.074 46.7928C66.4706 47.0915 72.2209 51.8704 72.32 52.169C72.5183 52.6668 72.0226 52.6668 72.4191 53.0651C72.6174 53.1646 76.8806 47.888 77.2771 46.8924C78.1694 45.1003 77.5745 43.2087 76.1865 41.9144ZM74.8977 48.6845C74.6994 48.9831 74.8977 48.784 74.2037 49.3814C73.9063 49.6801 67.8586 44.7021 68.0569 44.503C68.85 43.6069 70.6346 42.91 71.626 43.2087C73.8071 43.7065 76.7814 46.3946 74.8977 48.6845Z" fill="white"/>
</svg>
