<svg xmlns="http://www.w3.org/2000/svg" xmlns:xlink="http://www.w3.org/1999/xlink"><symbol id="icons-like"><path d="m17.4 9.6-.6 2.9-.6 2.5h8.7v2.1L22 24h-9V14l4.4-4.4ZM7 16v8-8ZM18.2 6l-6.6 6.6c-.4.3-.6.8-.6 1.4v10c0 1.1.9 2 2 2h9c.8 0 1.5-.5 1.8-1.2l3-7.1c.1-.2.1-.5.1-.7v-2h.1c0-1.1-.9-2-2-2h-6.3l1-4.6v-.3c0-.4-.2-.8-.4-1.1l-1.1-1ZM9 14H5v12h4V14Z"/></symbol><symbol id="icons-player"><path d="M48 27 0 54V0l48 27Z"/></symbol><symbol id="logo-htmlacademy"><path d="M16.134 2h-.09L4 3.19v21.007L16.045 31 28 24.197V3.19L16.134 2Zm10.17 10.29-10.26-5.783v-.085h-.089l-.089-.085v.085L5.696 12.29V4.636l10.26-1.02 10.349 1.02v7.654ZM15.956 7.783l10.26 5.698-4.014 2.211-6.335-3.572v1.19l5.264 2.977-.803.426-4.46-2.552v1.19l3.39 1.957-.714.425-2.677-1.53v1.19l1.695.935-1.606.936-10.17-5.698 10.17-5.783Zm-10.26 7.059 10.171 5.783v.85l-7.048-3.997v1.19l7.137 4.083v.935L8.818 19.69v1.19l7.137 4.083 7.227-4.167v-4.423l3.034-1.7v8.504l-10.26 5.868-10.26-5.783v-8.42Z"/></symbol><symbol id="socials-icon-telegram"><path d="m21.44 1.622-3.17 14.944c-.239 1.055-.862 1.317-1.748.82l-4.828-3.557-2.33 2.24c-.258.259-.473.474-.97.474l.347-4.917 8.948-8.086c.39-.347-.084-.54-.604-.192L6.022 10.314 1.26 8.823C.224 8.5.205 7.787 1.476 7.29L20.104.113c.862-.323 1.617.192 1.335 1.51Z"/></symbol><symbol id="socials-icon-vkontakte"><path fill-rule="evenodd" clip-rule="evenodd" d="M23.45.948c.166-.546 0-.948-.795-.948H20.03c-.668 0-.976.347-1.143.73 0 0-1.335 3.196-3.226 5.272-.612.602-.89.793-1.224.793-.167 0-.418-.191-.418-.738V.948c0-.656-.184-.948-.74-.948H9.151c-.417 0-.668.304-.668.593 0 .621.946.765 1.043 2.513v3.798c0 .833-.153.984-.487.984-.89 0-3.055-3.211-4.34-6.885C4.45.288 4.198 0 3.527 0H.9C.15 0 0 .347 0 .73c0 .682.89 4.07 4.145 8.551C6.315 12.341 9.37 14 12.153 14c1.669 0 1.875-.368 1.875-1.003v-2.313c0-.737.158-.884.687-.884.39 0 1.057.192 2.615 1.667C19.11 13.216 19.403 14 20.405 14h2.625c.75 0 1.126-.368.91-1.096-.238-.724-1.088-1.775-2.215-3.022-.612-.71-1.53-1.475-1.809-1.858-.389-.491-.278-.71 0-1.147 0 0 3.2-4.426 3.533-5.929h.001Z"/></symbol><symbol id="socials-icon-youtube"><path d="M17.181 0H2.813C1.306 0 0 1.3 0 2.8v8.3C0 12.7 1.306 14 2.813 14h14.368c1.608 0 2.814-1.3 2.814-2.8V2.8c.1-1.5-1.206-2.8-2.814-2.8ZM7.033 10.4V3.6L13.866 7l-6.833 3.4Z"/></symbol></svg>